# xmcd CD database file
#
# Track frame offsets:
#	187
#	11722
#	26740
#	39840
#	57330
#	72655
#	85132
#	99292
#	112997
#	126965
#	140095
#	152560
#	165345
#	177625
#
# Disc length: 2536 seconds
#
# Revision: 3
# Processed by: cddbd v1.5.2PL0 Copyright (c) Steve Scherf et al.
# Submitted via: CDex 1.51
#
DISCID=b809e60e
DTITLE=Jimmy Rogers - Chicago Bound (Chess Lp 407)
DYEAR=1970
DGENRE=Blues
TTITLE0=1955 You're The One
TTITLE1=1951 Money, Marbles and Chalk
TTITLE2=1950 Luedella
TTITLE3=1953 Act Like You Love Me
TTITLE4=1952 Back Door Friend
TTITLE5=1952 Last Time
TTITLE6=1951 I Used To Have A Woman
TTITLE7=1954 Sloppy Drunk
TTITLE8=1954 Blues Leave Me Alone
TTITLE9=1952 Out On The Road
TTITLE10=1950 Goin' Away Baby
TTITLE11=1950 That's All Right
TTITLE12=1954 Chicago Bound
TTITLE13=1956 Walking By Myself
EXTD=CHD-93000\n\nSubmitted 6/25/97\n[Jmccoy@efn.org] YEAR: 1970
EXTT0=
EXTT1=
EXTT2=
EXTT3=
EXTT4=
EXTT5=
EXTT6=
EXTT7=
EXTT8=
EXTT9=
EXTT10=
EXTT11=
EXTT12=
EXTT13=
PLAYORDER=
